<?xml version="1.0" encoding="iso-8859-1"?>
<!-- Generator: Adobe Illustrator 19.0.0, SVG Export Plug-In . SVG Version: 6.00 Build 0)  -->
<svg version="1.1" id="Capa_1" xmlns="http://www.w3.org/2000/svg" xmlns:xlink="http://www.w3.org/1999/xlink" x="0px" y="0px"
	 viewBox="0 0 512 512" style="enable-background:new 0 0 512 512;" xml:space="preserve">
<path style="fill:#80C7EA;" d="M273.293,111.272c0-51.349-41.627-92.976-92.976-92.976c-48.316,0-88.019,36.856-92.542,83.986
	c-6.7-2.664-13.998-4.145-21.647-4.145c-32.379,0-58.628,26.249-58.628,58.628h253.914
	C268.975,143.317,273.293,127.8,273.293,111.272z"/>
<path style="fill:#2C9CCC;" d="M273.293,111.272c0-18.353-5.505-36.513-15.73-51.755c-0.941-1.403-1.921-2.779-2.937-4.129
	c-0.039-0.051-0.078-0.102-0.117-0.152c-0.758-1.001-1.533-1.988-2.329-2.958c-42.157,15.551-74.69,51.156-85.954,95.186
	c-0.681,3.34-1.143,6.442-1.443,9.302h96.63c2.363-4.203,4.409-8.607,6.106-13.182c2.036-5.489,3.569-11.223,4.541-17.145
	C272.872,121.503,273.293,116.437,273.293,111.272z"/>
<path style="fill:#BDDEF6;" d="M491.018,303.322c8.452-11.06,13.482-24.874,13.482-39.868c0-36.304-29.43-65.735-65.735-65.735
	c-12.604,0-24.375,3.553-34.378,9.704c2.036-8.276,3.123-16.925,3.123-25.829c0-59.526-48.255-107.781-107.781-107.781
	s-107.781,48.255-107.781,107.781c0,1.218,0.028,2.429,0.068,3.636c-9.312-5.056-19.982-7.929-31.323-7.929
	c-36.304,0-65.735,29.43-65.735,65.735c0,1.857,0.096,3.691,0.247,5.509c-4.844-1.343-9.942-2.076-15.214-2.076
	c-31.398,0-56.851,25.453-56.851,56.852h467.878V303.322z"/>
<g>
	<path style="fill:#85D0F4;" d="M168.978,334.932c-23.141,11.823-37.361,22.554-43.157,33.245
		c-11.807,21.781,20.357,41.113,34.051,20.466C166.594,378.507,169.397,360.915,168.978,334.932z"/>
	<path style="fill:#85D0F4;" d="M270.407,334.932c-23.141,11.823-37.361,22.554-43.157,33.245
		c-11.807,21.781,20.357,41.113,34.051,20.466C268.022,378.507,270.826,360.915,270.407,334.932z"/>
	<path style="fill:#85D0F4;" d="M371.835,334.932c-23.141,11.823-37.361,22.554-43.157,33.245
		c-11.807,21.781,20.357,41.113,34.051,20.466C369.451,378.507,372.254,360.915,371.835,334.932z"/>
	<path style="fill:#85D0F4;" d="M219.692,431.191c-23.141,11.823-37.361,22.554-43.157,33.245
		c-11.807,21.781,20.357,41.113,34.051,20.466C217.308,474.767,220.111,457.175,219.692,431.191z"/>
	<path style="fill:#85D0F4;" d="M321.121,431.191c-23.141,11.823-37.361,22.554-43.157,33.245
		c-11.807,21.781,20.357,41.113,34.051,20.466C318.737,474.767,321.54,457.175,321.121,431.191z"/>
</g>
<path d="M172.842,328.503c-2.219-1.334-4.969-1.429-7.276-0.251c-25.131,12.839-39.855,24.39-46.338,36.35
	c-4.667,8.608-4.598,18.155,0.188,26.193c5.117,8.595,14.849,14.149,24.793,14.149c8.932,0,16.715-4.318,21.914-12.156
	c7.519-11.338,10.81-29.76,10.354-57.977C176.436,332.222,175.061,329.837,172.842,328.503z M153.622,384.497
	c-2.397,3.615-5.564,5.447-9.413,5.447c-4.618,0-9.513-2.806-11.904-6.823c-2.103-3.531-2.065-7.357,0.11-11.371
	c4.022-7.42,13.548-15.39,28.991-24.22C160.854,365.311,158.287,377.463,153.622,384.497z"/>
<path d="M274.27,328.503c-2.219-1.334-4.969-1.429-7.276-0.251c-25.13,12.839-39.854,24.39-46.338,36.35
	c-4.666,8.608-4.597,18.155,0.189,26.193c5.117,8.595,14.849,14.149,24.792,14.149c0.001,0,0,0,0,0
	c8.932,0,16.715-4.318,21.914-12.157c7.519-11.337,10.809-29.76,10.354-57.977C277.864,332.222,276.489,329.837,274.27,328.503z
	 M255.05,384.497c-2.397,3.615-5.564,5.447-9.413,5.447c-4.618,0-9.513-2.806-11.905-6.822c-2.103-3.532-2.065-7.357,0.11-11.371
	c4.023-7.42,13.549-15.39,28.991-24.221C262.283,365.311,259.715,377.462,255.05,384.497z"/>
<path d="M347.066,404.944C347.067,404.944,347.066,404.944,347.066,404.944c8.932,0,16.715-4.318,21.914-12.157
	c7.519-11.337,10.809-29.76,10.354-57.977c-0.042-2.589-1.416-4.974-3.635-6.307c-2.219-1.334-4.969-1.429-7.276-0.251
	c-25.131,12.84-39.855,24.39-46.338,36.35c-4.666,8.608-4.597,18.155,0.189,26.193C327.391,399.39,337.123,404.944,347.066,404.944z
	 M335.272,371.75c4.022-7.42,13.548-15.39,28.991-24.22c-0.551,17.781-3.119,29.932-7.784,36.966
	c-2.397,3.615-5.564,5.447-9.413,5.447c-4.618,0-9.513-2.806-11.905-6.822C333.059,379.59,333.096,375.764,335.272,371.75z"/>
<path d="M169.942,460.862c-4.667,8.607-4.598,18.154,0.188,26.192c5.117,8.595,14.849,14.149,24.793,14.149
	c8.932,0,16.715-4.317,21.914-12.156c7.519-11.337,10.809-29.759,10.354-57.977c-0.042-2.589-1.416-4.974-3.635-6.308
	c-2.219-1.333-4.969-1.429-7.276-0.25C191.149,437.352,176.425,448.902,169.942,460.862z M204.336,480.757
	c-2.397,3.614-5.564,5.447-9.413,5.447c-4.618,0-9.513-2.806-11.904-6.822c-2.103-3.532-2.065-7.357,0.11-11.371
	c4.022-7.42,13.548-15.39,28.991-24.22C211.568,461.571,209.001,473.723,204.336,480.757z"/>
<path d="M271.37,460.862c-4.666,8.607-4.597,18.154,0.189,26.193c5.117,8.595,14.849,14.148,24.792,14.148c0.001,0,0,0,0,0
	c8.932,0,16.715-4.317,21.914-12.156c7.519-11.338,10.809-29.76,10.354-57.977c-0.042-2.589-1.416-4.974-3.635-6.308
	s-4.969-1.429-7.276-0.25C292.578,437.352,277.854,448.902,271.37,460.862z M305.765,480.757c-2.397,3.614-5.564,5.447-9.413,5.447
	c-4.618,0-9.513-2.805-11.905-6.822c-2.103-3.532-2.065-7.357,0.11-11.371c4.022-7.42,13.548-15.39,28.991-24.22
	C312.997,461.571,310.43,473.723,305.765,480.757z"/>
<path d="M438.765,190.219c-8.386,0-16.654,1.432-24.467,4.2c0.473-4.253,0.711-8.536,0.711-12.824
	c0-63.566-51.715-115.281-115.281-115.281c-9.625,0-18.978,1.188-27.921,3.421c-16.166-35.516-52.092-58.938-91.491-58.938
	c-25.143,0-49.205,9.334-67.753,26.282C96.42,51.831,85.627,71.242,81.604,92.47c-5.049-1.218-10.227-1.832-15.477-1.832
	C29.665,90.638,0,120.303,0,156.766c0,4.142,3.358,7.5,7.5,7.5h178.255c-0.477,3.153-0.835,6.346-1.05,9.577
	c-7.688-2.661-15.824-4.041-24.013-4.041c-39.169,0-71.254,30.906-73.146,69.615c-2.508-0.297-5.031-0.447-7.556-0.447
	c-35.483,0-64.352,28.868-64.352,64.352c0,4.142,3.358,7.5,7.5,7.5c0,0,291.856,0,292.928,0c9.464,0,9.725-15,0.003-15H31.208
	c3.624-23.666,24.12-41.852,48.783-41.852c4.45,0,8.894,0.606,13.21,1.803c4.942,1.37,9.902-2.751,9.478-7.848
	c-0.149-1.794-0.221-3.394-0.221-4.888c0-32.111,26.124-58.235,58.234-58.235c9.693,0,19.286,2.427,27.744,7.019
	c5.018,2.724,11.263-1.155,11.075-6.839c-0.341-10.331,0.9-20.774,3.723-30.721c0.025-0.089,0.052-0.178,0.077-0.267
	c12.017-41.917,50.691-72.681,96.417-72.681c55.295,0,100.281,44.986,100.281,100.281c0,8.111-0.978,16.198-2.906,24.037
	c-1.565,6.364,5.618,11.619,11.211,8.181c9.144-5.622,19.673-8.593,30.45-8.593c32.111,0,58.235,26.124,58.235,58.234
	c0,11.665-3.387,22.781-9.829,32.368c0,0-140.796,0-141.585,0c-9.564,0-9.785,15-0.003,15h145.434c2.337,0,4.54-1.089,5.959-2.946
	c9.83-12.86,15.025-28.221,15.025-44.421C512,223.072,479.147,190.219,438.765,190.219z M189.051,149.266H15.549
	c3.638-24.65,24.934-43.628,50.579-43.628c6.495,0,12.846,1.216,18.876,3.614c4.573,1.818,9.768-1.366,10.237-6.253
	c2.019-21.043,11.765-40.521,27.442-54.847c15.776-14.416,36.245-22.355,57.634-22.355c32.924,0,63.007,19.221,77.098,48.537
	c-26.244,10.374-47.715,30.137-60.404,54.952c-0.019,0.037-0.038,0.075-0.057,0.112
	C194.952,133.324,189.793,146.725,189.051,149.266z"/>
<g>
</g>
<g>
</g>
<g>
</g>
<g>
</g>
<g>
</g>
<g>
</g>
<g>
</g>
<g>
</g>
<g>
</g>
<g>
</g>
<g>
</g>
<g>
</g>
<g>
</g>
<g>
</g>
<g>
</g>
</svg>
